<svg width="121" height="58" viewBox="0 0 121 58" fill="none" xmlns="http://www.w3.org/2000/svg">
<path d="M9.71 22.3C7.81 22.3 6.18 21.99 4.82 21.37C3.48 20.75 2.43 19.84 1.67 18.64C0.93 17.44 0.52 15.95 0.44 14.17C0.42 13.35 0.41 12.47 0.41 11.53C0.41 10.59 0.42 9.69 0.44 8.83C0.52 7.09 0.94 5.62 1.7 4.42C2.46 3.2 3.52 2.28 4.88 1.66C6.24 1.02 7.85 0.699999 9.71 0.699999C11.03 0.699999 12.25 0.869999 13.37 1.21C14.49 1.53 15.47 2.01 16.31 2.65C17.15 3.27 17.8 4.03 18.26 4.93C18.74 5.81 18.99 6.81 19.01 7.93C19.03 8.11 18.97 8.26 18.83 8.38C18.71 8.5 18.56 8.56 18.38 8.56H14.33C14.07 8.56 13.87 8.51 13.73 8.41C13.59 8.29 13.47 8.08 13.37 7.78C13.09 6.72 12.63 6 11.99 5.62C11.37 5.22 10.6 5.02 9.68 5.02C8.58 5.02 7.71 5.33 7.07 5.95C6.43 6.55 6.08 7.56 6.02 8.98C5.96 10.62 5.96 12.3 6.02 14.02C6.08 15.44 6.43 16.46 7.07 17.08C7.71 17.68 8.58 17.98 9.68 17.98C10.6 17.98 11.38 17.78 12.02 17.38C12.66 16.98 13.11 16.26 13.37 15.22C13.45 14.92 13.56 14.72 13.7 14.62C13.86 14.5 14.07 14.44 14.33 14.44H18.38C18.56 14.44 18.71 14.5 18.83 14.62C18.97 14.74 19.03 14.89 19.01 15.07C18.99 16.19 18.74 17.2 18.26 18.1C17.8 18.98 17.15 19.74 16.31 20.38C15.47 21 14.49 21.48 13.37 21.82C12.25 22.14 11.03 22.3 9.71 22.3ZM29.9945 22.3C27.9945 22.3 26.3345 22.02 25.0145 21.46C23.6945 20.88 22.6945 20.13 22.0145 19.21C21.3345 18.29 20.9745 17.31 20.9345 16.27C20.9345 16.11 20.9945 15.97 21.1145 15.85C21.2545 15.71 21.4145 15.64 21.5945 15.64H25.3745C25.6545 15.64 25.8645 15.69 26.0045 15.79C26.1645 15.89 26.3045 16.02 26.4245 16.18C26.5845 16.48 26.8045 16.77 27.0845 17.05C27.3845 17.33 27.7645 17.56 28.2245 17.74C28.7045 17.9 29.2945 17.98 29.9945 17.98C31.1545 17.98 32.0245 17.8 32.6045 17.44C33.2045 17.08 33.5045 16.59 33.5045 15.97C33.5045 15.53 33.3445 15.17 33.0245 14.89C32.7045 14.59 32.1845 14.33 31.4645 14.11C30.7645 13.87 29.8245 13.63 28.6445 13.39C27.1245 13.07 25.8245 12.66 24.7445 12.16C23.6845 11.64 22.8745 10.97 22.3145 10.15C21.7545 9.31 21.4745 8.27 21.4745 7.03C21.4745 5.81 21.8145 4.72 22.4945 3.76C23.1945 2.8 24.1645 2.05 25.4045 1.51C26.6445 0.969999 28.1145 0.699999 29.8145 0.699999C31.1945 0.699999 32.4045 0.879999 33.4445 1.24C34.5045 1.6 35.3945 2.08 36.1145 2.68C36.8345 3.28 37.3745 3.92 37.7345 4.6C38.1145 5.26 38.3145 5.91 38.3345 6.55C38.3345 6.71 38.2745 6.86 38.1545 7C38.0345 7.12 37.8845 7.18 37.7045 7.18H33.7445C33.5245 7.18 33.3345 7.14 33.1745 7.06C33.0145 6.98 32.8745 6.85 32.7545 6.67C32.6345 6.23 32.3145 5.85 31.7945 5.53C31.2945 5.19 30.6345 5.02 29.8145 5.02C28.9345 5.02 28.2445 5.18 27.7445 5.5C27.2645 5.8 27.0245 6.27 27.0245 6.91C27.0245 7.31 27.1545 7.66 27.4145 7.96C27.6945 8.26 28.1445 8.52 28.7645 8.74C29.4045 8.96 30.2745 9.19 31.3745 9.43C33.1945 9.77 34.6645 10.2 35.7845 10.72C36.9045 11.22 37.7245 11.88 38.2445 12.7C38.7645 13.5 39.0245 14.51 39.0245 15.73C39.0245 17.09 38.6345 18.27 37.8545 19.27C37.0945 20.25 36.0345 21 34.6745 21.52C33.3145 22.04 31.7545 22.3 29.9945 22.3ZM47.2953 22C46.9553 22 46.6853 21.91 46.4853 21.73C46.2853 21.55 46.1453 21.34 46.0653 21.1L39.9453 1.9C39.9053 1.8 39.8853 1.71 39.8853 1.63C39.8853 1.47 39.9453 1.33 40.0653 1.21C40.2053 1.07 40.3653 0.999999 40.5453 0.999999H44.2653C44.5853 0.999999 44.8353 1.09 45.0153 1.27C45.1953 1.45 45.3053 1.62 45.3453 1.78L49.5753 15.64L53.8353 1.78C53.8953 1.62 54.0053 1.45 54.1653 1.27C54.3453 1.09 54.5953 0.999999 54.9153 0.999999H58.6353C58.8153 0.999999 58.9653 1.07 59.0853 1.21C59.2253 1.33 59.2953 1.47 59.2953 1.63C59.2953 1.71 59.2753 1.8 59.2353 1.9L53.1153 21.1C53.0353 21.34 52.8953 21.55 52.6953 21.73C52.5153 21.91 52.2453 22 51.8853 22H47.2953ZM1.85 58C1.63 58 1.45 57.93 1.31 57.79C1.17 57.65 1.1 57.47 1.1 57.25V37.75C1.1 37.53 1.17 37.35 1.31 37.21C1.45 37.07 1.63 37 1.85 37H10.01C12.59 37 14.62 37.6 16.1 38.8C17.6 39.98 18.35 41.66 18.35 43.84C18.35 45.26 18 46.46 17.3 47.44C16.62 48.42 15.72 49.16 14.6 49.66L18.74 57.04C18.8 57.16 18.83 57.27 18.83 57.37C18.83 57.53 18.76 57.68 18.62 57.82C18.5 57.94 18.35 58 18.17 58H14.21C13.83 58 13.55 57.91 13.37 57.73C13.19 57.53 13.06 57.35 12.98 57.19L9.56 50.59H6.47V57.25C6.47 57.47 6.4 57.65 6.26 57.79C6.12 57.93 5.94 58 5.72 58H1.85ZM6.47 46.36H9.95C10.89 46.36 11.59 46.13 12.05 45.67C12.53 45.21 12.77 44.58 12.77 43.78C12.77 43 12.54 42.37 12.08 41.89C11.64 41.41 10.93 41.17 9.95 41.17H6.47V46.36ZM22.5922 58C22.3722 58 22.1922 57.93 22.0522 57.79C21.9122 57.65 21.8422 57.47 21.8422 57.25V37.75C21.8422 37.53 21.9122 37.35 22.0522 37.21C22.1922 37.07 22.3722 37 22.5922 37H36.6022C36.8222 37 37.0022 37.07 37.1422 37.21C37.2822 37.35 37.3522 37.53 37.3522 37.75V40.57C37.3522 40.79 37.2822 40.97 37.1422 41.11C37.0022 41.25 36.8222 41.32 36.6022 41.32H27.0322V45.37H35.9422C36.1622 45.37 36.3422 45.45 36.4822 45.61C36.6222 45.75 36.6922 45.93 36.6922 46.15V48.76C36.6922 48.96 36.6222 49.14 36.4822 49.3C36.3422 49.44 36.1622 49.51 35.9422 49.51H27.0322V53.68H36.8422C37.0622 53.68 37.2422 53.75 37.3822 53.89C37.5222 54.03 37.5922 54.21 37.5922 54.43V57.25C37.5922 57.47 37.5222 57.65 37.3822 57.79C37.2422 57.93 37.0622 58 36.8422 58H22.5922ZM39.8023 58C39.6423 58 39.4923 57.94 39.3523 57.82C39.2323 57.68 39.1723 57.53 39.1723 57.37C39.1723 57.27 39.1823 57.18 39.2023 57.1L46.2523 37.84C46.3123 37.62 46.4323 37.43 46.6123 37.27C46.8123 37.09 47.0823 37 47.4223 37H51.8623C52.2023 37 52.4623 37.09 52.6423 37.27C52.8423 37.43 52.9723 37.62 53.0323 37.84L60.0523 57.1C60.0923 57.18 60.1123 57.27 60.1123 57.37C60.1123 57.53 60.0423 57.68 59.9023 57.82C59.7823 57.94 59.6323 58 59.4523 58H55.7623C55.4623 58 55.2323 57.93 55.0723 57.79C54.9323 57.63 54.8423 57.49 54.8023 57.37L53.6323 54.31H45.6223L44.4823 57.37C44.4423 57.49 44.3523 57.63 44.2123 57.79C44.0723 57.93 43.8323 58 43.4923 58H39.8023ZM46.8523 49.99H52.4323L49.6123 42.07L46.8523 49.99ZM63.227 58C63.007 58 62.827 57.93 62.687 57.79C62.547 57.65 62.477 57.47 62.477 57.25V37.75C62.477 37.53 62.547 37.35 62.687 37.21C62.827 37.07 63.007 37 63.227 37H71.027C72.987 37 74.657 37.32 76.037 37.96C77.417 38.58 78.477 39.5 79.217 40.72C79.957 41.92 80.357 43.41 80.417 45.19C80.437 46.07 80.447 46.84 80.447 47.5C80.447 48.16 80.437 48.92 80.417 49.78C80.337 51.64 79.937 53.18 79.217 54.4C78.517 55.62 77.487 56.53 76.127 57.13C74.787 57.71 73.137 58 71.177 58H63.227ZM67.847 53.68H71.027C71.887 53.68 72.597 53.55 73.157 53.29C73.737 53.01 74.167 52.58 74.447 52C74.747 51.42 74.907 50.66 74.927 49.72C74.967 49.14 74.987 48.62 74.987 48.16C75.007 47.7 75.007 47.24 74.987 46.78C74.987 46.32 74.967 45.81 74.927 45.25C74.887 43.89 74.527 42.9 73.847 42.28C73.187 41.64 72.197 41.32 70.877 41.32H67.847V53.68ZM84.7016 58C84.4816 58 84.3016 57.93 84.1616 57.79C84.0216 57.65 83.9516 57.47 83.9516 57.25V37.75C83.9516 37.53 84.0216 37.35 84.1616 37.21C84.3016 37.07 84.4816 37 84.7016 37H98.7116C98.9316 37 99.1116 37.07 99.2516 37.21C99.3916 37.35 99.4616 37.53 99.4616 37.75V40.57C99.4616 40.79 99.3916 40.97 99.2516 41.11C99.1116 41.25 98.9316 41.32 98.7116 41.32H89.1416V45.37H98.0516C98.2716 45.37 98.4516 45.45 98.5916 45.61C98.7316 45.75 98.8016 45.93 98.8016 46.15V48.76C98.8016 48.96 98.7316 49.14 98.5916 49.3C98.4516 49.44 98.2716 49.51 98.0516 49.51H89.1416V53.68H98.9516C99.1716 53.68 99.3516 53.75 99.4916 53.89C99.6316 54.03 99.7016 54.21 99.7016 54.43V57.25C99.7016 57.47 99.6316 57.65 99.4916 57.79C99.3516 57.93 99.1716 58 98.9516 58H84.7016ZM103.862 58C103.642 58 103.462 57.93 103.322 57.79C103.182 57.65 103.112 57.47 103.112 57.25V37.75C103.112 37.53 103.182 37.35 103.322 37.21C103.462 37.07 103.642 37 103.862 37H112.022C114.602 37 116.632 37.6 118.112 38.8C119.612 39.98 120.362 41.66 120.362 43.84C120.362 45.26 120.012 46.46 119.312 47.44C118.632 48.42 117.732 49.16 116.612 49.66L120.752 57.04C120.812 57.16 120.842 57.27 120.842 57.37C120.842 57.53 120.772 57.68 120.632 57.82C120.512 57.94 120.362 58 120.182 58H116.222C115.842 58 115.562 57.91 115.382 57.73C115.202 57.53 115.072 57.35 114.992 57.19L111.572 50.59H108.482V57.25C108.482 57.47 108.412 57.65 108.272 57.79C108.132 57.93 107.952 58 107.732 58H103.862ZM108.482 46.36H111.962C112.902 46.36 113.602 46.13 114.062 45.67C114.542 45.21 114.782 44.58 114.782 43.78C114.782 43 114.552 42.37 114.092 41.89C113.652 41.41 112.942 41.17 111.962 41.17H108.482V46.36Z" fill="black"/>
</svg>
